<svg xmlns="http://www.w3.org/2000/svg" viewBox="0 0 8.45 18.22"><defs><style>.cls-1{fill:#fff;}</style></defs><g id="레이어_2" data-name="레이어 2"><g id="레이어_1-2" data-name="레이어 1"><path class="cls-1" d="M1.79,9.12H.27c-.19,0-.26,0-.26-.24C0,8,0,7.06,0,6.16c0-.21.07-.28.28-.27.49,0,1,0,1.51,0,0-.15,0-.27,0-.39,0-.81,0-1.63.08-2.43A3.31,3.31,0,0,1,5.07,0C6.17,0,7.26,0,8.39,0V3.13h-2A.77.77,0,0,0,5.6,4c0,.54,0,1.09,0,1.64,0,.23.08.29.29.28H8.45c0,.24,0,.46,0,.67-.08.76-.17,1.53-.23,2.29,0,.23-.12.28-.32.28H5.6v9.1c-1,0-2,0-3,0s-.83,0-.83-.85V9.47C1.81,9.37,1.8,9.26,1.79,9.12Z"/></g></g></svg>