<svg xmlns="http://www.w3.org/2000/svg" viewBox="0 0 20.69 14.61"><defs><style>.cls-1{fill:#fff;}</style></defs><g id="레이어_2" data-name="레이어 2"><g id="레이어_1-2" data-name="레이어 1"><path class="cls-1" d="M10.92,0l5.81.23A10.51,10.51,0,0,1,18.2.4a2.6,2.6,0,0,1,2.24,2.21,11.08,11.08,0,0,1,.25,2.29c0,1.66,0,3.31,0,5a9.27,9.27,0,0,1-.31,2.46,2.46,2.46,0,0,1-2.19,1.92c-1.19.14-2.4.23-3.6.28q-3.72.17-7.44,0c-1.41-.06-2.81-.16-4.21-.27a2.72,2.72,0,0,1-2-1,3.41,3.41,0,0,1-.62-1.71A31.52,31.52,0,0,1,.06,5.4,16.16,16.16,0,0,1,.4,2.46,2.55,2.55,0,0,1,2.61.39C3.79.25,5,.17,6.17.11,7.57.05,9,0,10.92,0ZM8.33,10.45l5.43-3.13L8.33,4.19Z"/></g></g></svg>